<?xml version="1.0" standalone="no"?><!DOCTYPE svg PUBLIC "-//W3C//DTD SVG 1.1//EN" "http://www.w3.org/Graphics/SVG/1.1/DTD/svg11.dtd"><svg t="1613655628658" class="icon" viewBox="0 0 1024 1024" version="1.1" xmlns="http://www.w3.org/2000/svg" p-id="2188" xmlns:xlink="http://www.w3.org/1999/xlink" width="200" height="200"><defs><style type="text/css"></style></defs><path d="M587.1 772.6c-28.2 0-56.3-10.7-77.8-32.2L260.6 491.6c-12.2-12.2-20.1-31.7-24-59.6-2.9-20.7-3.5-45.4-1.9-71.6 1.8-28.7 9.1-98.3 36.8-126s97.3-35 126-36.8c26.2-1.7 51-1 71.6 1.9 27.9 3.9 47.4 11.8 59.6 24l248.8 248.8c42.9 42.9 42.9 112.7 0 155.6L664.9 740.4c-21.4 21.5-49.6 32.2-77.8 32.2z m-284-323.3L551.8 698c19.5 19.5 51.2 19.5 70.7 0l112.6-112.6c19.5-19.5 19.5-51.2 0-70.7L486.4 266c-5.3-4.2-34.1-12-86.2-8.5-49.2 3.3-80.3 14.1-86.4 19.3-5.2 6-16 37.2-19.3 86.4-3.4 52 4.5 80.8 8.6 86.1z" p-id="2189"></path><path d="M581.3 888.9c-35.5 0-68.1-13.1-92.4-37.4l-257-257.1a25.953 25.953 0 0 1 0-36.8c10.2-10.2 26.6-10.2 36.8 0l257.1 257.1c15.4 15.4 36.7 23.2 60.2 22 24.4-1.2 47.8-11.9 66-30l121.3-121.3c10.2-10.2 26.6-10.2 36.8 0 10.2 10.2 10.2 26.6 0 36.8L688.7 843.6c-27.3 27.3-62.9 43.4-100.2 45.2-2.4 0.1-4.8 0.1-7.2 0.1zM404.9 441.2c-18.9 0-37.9-7.2-52.3-21.6-14-14-21.7-32.6-21.7-52.3s7.7-38.3 21.7-52.3c28.9-28.9 75.8-28.9 104.7 0 28.9 28.9 28.9 75.8 0 104.7-14.5 14.3-33.4 21.5-52.4 21.5z m0-99.9c-6.9 0-13.5 2.7-18.4 7.6-4.9 4.9-7.6 11.4-7.6 18.4s2.7 13.5 7.6 18.4c10.1 10.1 26.6 10.1 36.8 0 10.1-10.1 10.1-26.6 0-36.8-4.9-4.9-11.4-7.6-18.4-7.6z" p-id="2190"></path></svg>